<svg height="2814" width="720" xmlns="http://www.w3.org/2000/svg">
<rect height="2814" fill="#555" width="720"></rect>
<text fill="#7f7" font-family="Courier New" font-size="12" xml:space="preserve">
<tspan x="10" y="26">30 megabytes installed</tspan>
<tspan x="10" y="42"></tspan>
<tspan x="10" y="58">node_modules</tspan>
<tspan x="10" y="74">└─┬ yarnpkg@0.15.1 </tspan>
<tspan x="10" y="90">  ├─┬ babel-plugin-transform-inline-imports-commonjs@1.2.0 </tspan>
<tspan x="10" y="106">  │ ├─┬ babel-plugin-transform-strict-mode@6.24.1 </tspan>
<tspan x="10" y="122">  │ │ └─┬ babel-types@6.24.1 </tspan>
<tspan x="10" y="138">  │ │   ├── esutils@2.0.2 </tspan>
<tspan x="10" y="154">  │ │   ├── lodash@4.17.4 </tspan>
<tspan x="10" y="170">  │ │   └── to-fast-properties@1.0.2 </tspan>
<tspan x="10" y="186">  │ └── builtin-modules@1.1.1 </tspan>
<tspan x="10" y="202">  ├─┬ babel-runtime@6.23.0 </tspan>
<tspan x="10" y="218">  │ ├── core-js@2.4.1 </tspan>
<tspan x="10" y="234">  │ └── regenerator-runtime@0.10.3 </tspan>
<tspan x="10" y="250">  ├── bytes@2.5.0 </tspan>
<tspan x="10" y="266">  ├── camelcase@3.0.0 </tspan>
<tspan x="10" y="282">  ├─┬ chalk@1.1.3 </tspan>
<tspan x="10" y="298">  │ ├── ansi-styles@2.2.1 </tspan>
<tspan x="10" y="314">  │ ├── escape-string-regexp@1.0.5 </tspan>
<tspan x="10" y="330">  │ ├─┬ has-ansi@2.0.0 </tspan>
<tspan x="10" y="346">  │ │ └── ansi-regex@2.1.1 </tspan>
<tspan x="10" y="362">  │ ├── strip-ansi@3.0.1 </tspan>
<tspan x="10" y="378">  │ └── supports-color@2.0.0 </tspan>
<tspan x="10" y="394">  ├─┬ cmd-shim@2.0.2 </tspan>
<tspan x="10" y="410">  │ └── graceful-fs@4.1.11 </tspan>
<tspan x="10" y="426">  ├─┬ commander@2.9.0 </tspan>
<tspan x="10" y="442">  │ └── graceful-readlink@1.0.1 </tspan>
<tspan x="10" y="458">  ├── death@1.1.0 </tspan>
<tspan x="10" y="474">  ├─┬ debug@2.6.3 </tspan>
<tspan x="10" y="490">  │ └── ms@0.7.2 </tspan>
<tspan x="10" y="506">  ├─┬ defaults@1.0.3 </tspan>
<tspan x="10" y="522">  │ └── clone@1.0.2 </tspan>
<tspan x="10" y="538">  ├── diff@2.2.3 </tspan>
<tspan x="10" y="554">  ├─┬ github@2.5.1 </tspan>
<tspan x="10" y="570">  │ ├─┬ follow-redirects@0.0.7 </tspan>
<tspan x="10" y="586">  │ │ └── stream-consume@0.1.0 </tspan>
<tspan x="10" y="602">  │ ├─┬ https-proxy-agent@1.0.0 </tspan>
<tspan x="10" y="618">  │ │ └─┬ agent-base@2.0.1 </tspan>
<tspan x="10" y="634">  │ │   └── semver@5.0.3 </tspan>
<tspan x="10" y="650">  │ └── mime@1.3.4 </tspan>
<tspan x="10" y="666">  ├── ini@1.3.4 </tspan>
<tspan x="10" y="682">  ├─┬ invariant@2.2.2 </tspan>
<tspan x="10" y="698">  │ └─┬ loose-envify@1.3.1 </tspan>
<tspan x="10" y="714">  │   └── js-tokens@3.0.1 </tspan>
<tspan x="10" y="730">  ├── is-builtin-module@1.0.0 </tspan>
<tspan x="10" y="746">  ├── leven@2.1.0 </tspan>
<tspan x="10" y="762">  ├─┬ loud-rejection@1.6.0 </tspan>
<tspan x="10" y="778">  │ ├─┬ currently-unhandled@0.4.1 </tspan>
<tspan x="10" y="794">  │ │ └── array-find-index@1.0.2 </tspan>
<tspan x="10" y="810">  │ └── signal-exit@3.0.2 </tspan>
<tspan x="10" y="826">  ├─┬ minimatch@3.0.3 </tspan>
<tspan x="10" y="842">  │ └─┬ brace-expansion@1.1.7 </tspan>
<tspan x="10" y="858">  │   ├── balanced-match@0.4.2 </tspan>
<tspan x="10" y="874">  │   └── concat-map@0.0.1 </tspan>
<tspan x="10" y="890">  ├─┬ mkdirp@0.5.1 </tspan>
<tspan x="10" y="906">  │ └── minimist@0.0.8 </tspan>
<tspan x="10" y="922">  ├─┬ node-emoji@1.5.1 </tspan>
<tspan x="10" y="938">  │ └── string.prototype.codepointat@0.2.0 </tspan>
<tspan x="10" y="954">  ├─┬ node-gyp@3.6.0 </tspan>
<tspan x="10" y="970">  │ ├── fstream@1.0.11 </tspan>
<tspan x="10" y="986">  │ ├─┬ glob@7.1.1 </tspan>
<tspan x="10" y="1002">  │ │ ├── fs.realpath@1.0.0 </tspan>
<tspan x="10" y="1018">  │ │ ├─┬ inflight@1.0.6 </tspan>
<tspan x="10" y="1034">  │ │ │ └── wrappy@1.0.2 </tspan>
<tspan x="10" y="1050">  │ │ ├── once@1.4.0 </tspan>
<tspan x="10" y="1066">  │ │ └── path-is-absolute@1.0.1 </tspan>
<tspan x="10" y="1082">  │ ├─┬ nopt@3.0.6 </tspan>
<tspan x="10" y="1098">  │ │ └── abbrev@1.1.0 </tspan>
<tspan x="10" y="1114">  │ ├─┬ npmlog@4.0.2 </tspan>
<tspan x="10" y="1130">  │ │ ├─┬ are-we-there-yet@1.1.2 </tspan>
<tspan x="10" y="1146">  │ │ │ └── delegates@1.0.0 </tspan>
<tspan x="10" y="1162">  │ │ ├── console-control-strings@1.1.0 </tspan>
<tspan x="10" y="1178">  │ │ ├─┬ gauge@2.7.3 </tspan>
<tspan x="10" y="1194">  │ │ │ ├── aproba@1.1.1 </tspan>
<tspan x="10" y="1210">  │ │ │ ├── has-unicode@2.0.1 </tspan>
<tspan x="10" y="1226">  │ │ │ ├── object-assign@4.1.1 </tspan>
<tspan x="10" y="1242">  │ │ │ ├─┬ string-width@1.0.2 </tspan>
<tspan x="10" y="1258">  │ │ │ │ ├── code-point-at@1.1.0 </tspan>
<tspan x="10" y="1274">  │ │ │ │ └── is-fullwidth-code-point@1.0.0 </tspan>
<tspan x="10" y="1290">  │ │ │ └── wide-align@1.1.0 </tspan>
<tspan x="10" y="1306">  │ │ └── set-blocking@2.0.0 </tspan>
<tspan x="10" y="1322">  │ ├─┬ osenv@0.1.4 </tspan>
<tspan x="10" y="1338">  │ │ └── os-tmpdir@1.0.2 </tspan>
<tspan x="10" y="1354">  │ └─┬ which@1.2.14 </tspan>
<tspan x="10" y="1370">  │   └── isexe@2.0.0 </tspan>
<tspan x="10" y="1386">  ├── object-path@0.11.4 </tspan>
<tspan x="10" y="1402">  ├─┬ proper-lockfile@1.2.0 </tspan>
<tspan x="10" y="1418">  │ ├── err-code@1.1.2 </tspan>
<tspan x="10" y="1434">  │ ├── extend@3.0.0 </tspan>
<tspan x="10" y="1450">  │ └── retry@0.10.1 </tspan>
<tspan x="10" y="1466">  ├─┬ read@1.0.7 </tspan>
<tspan x="10" y="1482">  │ └── mute-stream@0.0.7 </tspan>
<tspan x="10" y="1498">  ├─┬ repeating@2.0.1 </tspan>
<tspan x="10" y="1514">  │ └─┬ is-finite@1.0.2 </tspan>
<tspan x="10" y="1530">  │   └── number-is-nan@1.0.1 </tspan>
<tspan x="10" y="1546">  ├─┬ request@2.81.0 </tspan>
<tspan x="10" y="1562">  │ ├── aws-sign2@0.6.0 </tspan>
<tspan x="10" y="1578">  │ ├── aws4@1.6.0 </tspan>
<tspan x="10" y="1594">  │ ├── caseless@0.12.0 </tspan>
<tspan x="10" y="1610">  │ ├─┬ combined-stream@1.0.5 </tspan>
<tspan x="10" y="1626">  │ │ └── delayed-stream@1.0.0 </tspan>
<tspan x="10" y="1642">  │ ├── forever-agent@0.6.1 </tspan>
<tspan x="10" y="1658">  │ ├─┬ form-data@2.1.4 </tspan>
<tspan x="10" y="1674">  │ │ └── asynckit@0.4.0 </tspan>
<tspan x="10" y="1690">  │ ├─┬ har-validator@4.2.1 </tspan>
<tspan x="10" y="1706">  │ │ ├─┬ ajv@4.11.7 </tspan>
<tspan x="10" y="1722">  │ │ │ ├── co@4.6.0 </tspan>
<tspan x="10" y="1738">  │ │ │ └─┬ json-stable-stringify@1.0.1 </tspan>
<tspan x="10" y="1754">  │ │ │   └── jsonify@0.0.0 </tspan>
<tspan x="10" y="1770">  │ │ └── har-schema@1.0.5 </tspan>
<tspan x="10" y="1786">  │ ├─┬ hawk@3.1.3 </tspan>
<tspan x="10" y="1802">  │ │ ├── boom@2.10.1 </tspan>
<tspan x="10" y="1818">  │ │ ├── cryptiles@2.0.5 </tspan>
<tspan x="10" y="1834">  │ │ ├── hoek@2.16.3 </tspan>
<tspan x="10" y="1850">  │ │ └── sntp@1.0.9 </tspan>
<tspan x="10" y="1866">  │ ├─┬ http-signature@1.1.1 </tspan>
<tspan x="10" y="1882">  │ │ ├── assert-plus@0.2.0 </tspan>
<tspan x="10" y="1898">  │ │ ├─┬ jsprim@1.4.0 </tspan>
<tspan x="10" y="1914">  │ │ │ ├── assert-plus@1.0.0 </tspan>
<tspan x="10" y="1930">  │ │ │ ├── extsprintf@1.0.2 </tspan>
<tspan x="10" y="1946">  │ │ │ ├── json-schema@0.2.3 </tspan>
<tspan x="10" y="1962">  │ │ │ └── verror@1.3.6 </tspan>
<tspan x="10" y="1978">  │ │ └─┬ sshpk@1.13.0 </tspan>
<tspan x="10" y="1994">  │ │   ├── asn1@0.2.3 </tspan>
<tspan x="10" y="2010">  │ │   ├── assert-plus@1.0.0 </tspan>
<tspan x="10" y="2026">  │ │   ├── bcrypt-pbkdf@1.0.1 </tspan>
<tspan x="10" y="2042">  │ │   ├─┬ dashdash@1.14.1 </tspan>
<tspan x="10" y="2058">  │ │   │ └── assert-plus@1.0.0 </tspan>
<tspan x="10" y="2074">  │ │   ├── ecc-jsbn@0.1.1 </tspan>
<tspan x="10" y="2090">  │ │   ├─┬ getpass@0.1.6 </tspan>
<tspan x="10" y="2106">  │ │   │ └── assert-plus@1.0.0 </tspan>
<tspan x="10" y="2122">  │ │   ├── jodid25519@1.0.2 </tspan>
<tspan x="10" y="2138">  │ │   ├── jsbn@0.1.1 </tspan>
<tspan x="10" y="2154">  │ │   └── tweetnacl@0.14.5 </tspan>
<tspan x="10" y="2170">  │ ├── is-typedarray@1.0.0 </tspan>
<tspan x="10" y="2186">  │ ├── isstream@0.1.2 </tspan>
<tspan x="10" y="2202">  │ ├── json-stringify-safe@5.0.1 </tspan>
<tspan x="10" y="2218">  │ ├─┬ mime-types@2.1.15 </tspan>
<tspan x="10" y="2234">  │ │ └── mime-db@1.27.0 </tspan>
<tspan x="10" y="2250">  │ ├── oauth-sign@0.8.2 </tspan>
<tspan x="10" y="2266">  │ ├── performance-now@0.2.0 </tspan>
<tspan x="10" y="2282">  │ ├── qs@6.4.0 </tspan>
<tspan x="10" y="2298">  │ ├── safe-buffer@5.0.1 </tspan>
<tspan x="10" y="2314">  │ ├── stringstream@0.0.5 </tspan>
<tspan x="10" y="2330">  │ ├─┬ tough-cookie@2.3.2 </tspan>
<tspan x="10" y="2346">  │ │ └── punycode@1.4.1 </tspan>
<tspan x="10" y="2362">  │ ├── tunnel-agent@0.6.0 </tspan>
<tspan x="10" y="2378">  │ └── uuid@3.0.1 </tspan>
<tspan x="10" y="2394">  ├── request-capture-har@1.2.2 </tspan>
<tspan x="10" y="2410">  ├── rimraf@2.6.1 </tspan>
<tspan x="10" y="2426">  ├── roadrunner@1.1.0 </tspan>
<tspan x="10" y="2442">  ├── semver@5.3.0 </tspan>
<tspan x="10" y="2458">  ├─┬ strip-bom@2.0.0 </tspan>
<tspan x="10" y="2474">  │ └── is-utf8@0.2.1 </tspan>
<tspan x="10" y="2490">  ├─┬ tar@2.2.1 </tspan>
<tspan x="10" y="2506">  │ ├── block-stream@0.0.9 </tspan>
<tspan x="10" y="2522">  │ └── inherits@2.0.3 </tspan>
<tspan x="10" y="2538">  ├─┬ tar-stream@1.5.2 </tspan>
<tspan x="10" y="2554">  │ ├── bl@1.2.0 </tspan>
<tspan x="10" y="2570">  │ ├── end-of-stream@1.4.0 </tspan>
<tspan x="10" y="2586">  │ ├─┬ readable-stream@2.2.9 </tspan>
<tspan x="10" y="2602">  │ │ ├── buffer-shims@1.0.0 </tspan>
<tspan x="10" y="2618">  │ │ ├── core-util-is@1.0.2 </tspan>
<tspan x="10" y="2634">  │ │ ├── isarray@1.0.0 </tspan>
<tspan x="10" y="2650">  │ │ ├── process-nextick-args@1.0.7 </tspan>
<tspan x="10" y="2666">  │ │ ├── string_decoder@1.0.0 </tspan>
<tspan x="10" y="2682">  │ │ └── util-deprecate@1.0.2 </tspan>
<tspan x="10" y="2698">  │ └── xtend@4.0.1 </tspan>
<tspan x="10" y="2714">  ├─┬ user-home@2.0.0 </tspan>
<tspan x="10" y="2730">  │ └── os-homedir@1.0.2 </tspan>
<tspan x="10" y="2746">  └─┬ validate-npm-package-license@3.0.1 </tspan>
<tspan x="10" y="2762">    ├─┬ spdx-correct@1.0.2 </tspan>
<tspan x="10" y="2778">    │ └── spdx-license-ids@1.2.2 </tspan>
<tspan x="10" y="2794">    └── spdx-expression-parse@1.0.4</tspan>
</text>
</svg>
